<svg xmlns="http://www.w3.org/2000/svg" width="28.248" height="21.186" viewBox="0 0 28.248 21.186"><g transform="translate(0 0)"><path d="M7.122,65.719C11,69,17.8,74.778,19.8,76.58a1.181,1.181,0,0,0,1.709,0c2-1.8,8.8-7.58,12.681-10.863a.588.588,0,0,0,.083-.812A2.337,2.337,0,0,0,32.426,64H8.886a2.337,2.337,0,0,0-1.847.907A.588.588,0,0,0,7.122,65.719Z" transform="translate(-6.532 -64)" fill="#002d56"/><path d="M347.583,126.466a.586.586,0,0,0-.628.085c-2.539,2.152-5.884,5-8.407,7.166a.588.588,0,0,0,.016.905c2.344,1.878,5.877,4.46,8.428,6.3a.589.589,0,0,0,.932-.478V127A.588.588,0,0,0,347.583,126.466Z" transform="translate(-319.677 -122.968)" fill="#002d56"/><path d="M.932,140.927c2.552-1.836,6.085-4.418,8.429-6.3a.588.588,0,0,0,.016-.905c-2.523-2.17-5.869-5.014-8.408-7.166a.589.589,0,0,0-.969.449v13.44a.588.588,0,0,0,.932.478Z" transform="translate(0 -122.977)" fill="#002d56"/><path d="M35.674,292c-2.464-1.763-7-5.049-9.711-7.248a.59.59,0,0,0-.757.013c-.532.464-.976.855-1.292,1.138a2.383,2.383,0,0,1-3.285,0c-.314-.283-.759-.675-1.291-1.137a.586.586,0,0,0-.757-.013c-2.7,2.191-7.244,5.481-9.711,7.248a.588.588,0,0,0-.088.879,2.358,2.358,0,0,0,1.721.755h23.54a2.361,2.361,0,0,0,1.721-.755.588.588,0,0,0-.089-.879Z" transform="translate(-8.148 -272.444)" fill="#002d56"/></g></svg>