<svg xmlns="http://www.w3.org/2000/svg" width="23.567" height="28.248" viewBox="0 0 23.567 28.248"><g transform="translate(-660.025 -1988.705)"><path d="M93.835,13.607a6.583,6.583,0,0,0,4.811-1.993,6.583,6.583,0,0,0,1.993-4.81,6.584,6.584,0,0,0-1.993-4.81,6.8,6.8,0,0,0-9.621,0A6.583,6.583,0,0,0,87.032,6.8a6.583,6.583,0,0,0,1.994,4.811A6.585,6.585,0,0,0,93.835,13.607Zm0,0" transform="translate(577.795 1988.704)" fill="#002d56"/><path d="M23.51,255.393a16.8,16.8,0,0,0-.229-1.785,14.063,14.063,0,0,0-.439-1.795,8.864,8.864,0,0,0-.738-1.674,6.315,6.315,0,0,0-1.112-1.45,4.9,4.9,0,0,0-1.6-1,5.523,5.523,0,0,0-2.04-.369,2.071,2.071,0,0,0-1.106.469c-.331.216-.719.466-1.152.743a6.6,6.6,0,0,1-1.49.657,5.788,5.788,0,0,1-3.646,0,6.586,6.586,0,0,1-1.489-.656c-.429-.274-.817-.524-1.153-.743a2.068,2.068,0,0,0-1.105-.469,5.516,5.516,0,0,0-2.04.37,4.9,4.9,0,0,0-1.6,1,6.317,6.317,0,0,0-1.112,1.45,8.881,8.881,0,0,0-.738,1.674,14.1,14.1,0,0,0-.439,1.794,16.746,16.746,0,0,0-.229,1.786c-.037.54-.056,1.1-.056,1.668a4.691,4.691,0,0,0,1.393,3.549,5.015,5.015,0,0,0,3.59,1.309h13.6a5.014,5.014,0,0,0,3.59-1.309,4.688,4.688,0,0,0,1.393-3.549c0-.569-.019-1.131-.057-1.668Zm0,0" transform="translate(660.025 1755.033)" fill="#002d56"/></g></svg>