<svg xmlns="http://www.w3.org/2000/svg" width="28.279" height="28.338" viewBox="0 0 28.279 28.338"><g transform="translate(0 0)"><path d="M28.077,20.8l-3.955-3.955a2.63,2.63,0,0,0-4.378.989,2.691,2.691,0,0,1-3.107,1.695C13.811,18.82,10,15.148,9.292,12.182a2.56,2.56,0,0,1,1.695-3.107A2.63,2.63,0,0,0,11.975,4.7L8.02.742a2.821,2.821,0,0,0-3.813,0L1.523,3.425c-2.684,2.825.282,10.31,6.921,16.949s14.124,9.745,16.949,6.921l2.684-2.684A2.821,2.821,0,0,0,28.077,20.8Z" transform="translate(-0.539 0)" fill="#002d56"/></g></svg>