<svg xmlns="http://www.w3.org/2000/svg" width="17.999" height="17.999" viewBox="0 0 17.999 17.999">
  <g id="Group_2588" data-name="Group 2588" transform="translate(-1551.142 -1901.183)">
    <g id="Group_2587" data-name="Group 2587" transform="translate(1551.142 1901.183)">
      <path id="Path_4042" data-name="Path 4042" d="M1560.141,1902.8c2.4,0,2.688.009,3.636.053a4.982,4.982,0,0,1,1.671.31,2.977,2.977,0,0,1,1.708,1.708,4.98,4.98,0,0,1,.31,1.671c.043.949.053,1.233.053,3.636s-.01,2.688-.053,3.637a4.985,4.985,0,0,1-.31,1.671,2.983,2.983,0,0,1-1.708,1.708,4.977,4.977,0,0,1-1.671.31c-.949.043-1.233.052-3.636.052s-2.688-.009-3.637-.052a4.98,4.98,0,0,1-1.671-.31,2.983,2.983,0,0,1-1.708-1.708,4.984,4.984,0,0,1-.31-1.671c-.043-.949-.053-1.234-.053-3.637s.01-2.688.053-3.636a4.98,4.98,0,0,1,.31-1.671,2.978,2.978,0,0,1,1.708-1.708,4.985,4.985,0,0,1,1.671-.31c.949-.044,1.234-.053,3.637-.053m0-1.622c-2.445,0-2.751.011-3.71.054a6.615,6.615,0,0,0-2.185.418,4.6,4.6,0,0,0-2.632,2.632,6.6,6.6,0,0,0-.418,2.184c-.044.96-.054,1.267-.054,3.711s.01,2.75.054,3.71a6.6,6.6,0,0,0,.418,2.185,4.6,4.6,0,0,0,2.632,2.632,6.618,6.618,0,0,0,2.185.418c.959.044,1.266.054,3.71.054s2.75-.01,3.71-.054a6.617,6.617,0,0,0,2.184-.418,4.6,4.6,0,0,0,2.632-2.632,6.618,6.618,0,0,0,.418-2.185c.043-.96.054-1.266.054-3.71s-.011-2.75-.054-3.711a6.613,6.613,0,0,0-.418-2.184,4.6,4.6,0,0,0-2.632-2.632,6.614,6.614,0,0,0-2.184-.418c-.96-.043-1.267-.054-3.71-.054" transform="translate(-1551.142 -1901.183)" fill="#fff"/>
      <path id="Path_4043" data-name="Path 4043" d="M1562.659,1908.079a4.621,4.621,0,1,0,4.621,4.621,4.621,4.621,0,0,0-4.621-4.621m0,7.621a3,3,0,1,1,3-3,3,3,0,0,1-3,3" transform="translate(-1553.659 -1903.701)" fill="#fff"/>
      <path id="Path_4044" data-name="Path 4044" d="M1573.341,1907.17a1.08,1.08,0,1,1-1.08-1.08,1.08,1.08,0,0,1,1.08,1.08" transform="translate(-1558.458 -1902.974)" fill="#fff"/>
    </g>
  </g>
</svg>
