<svg xmlns="http://www.w3.org/2000/svg" width="38" height="38" viewBox="0 0 38 38">
  <g id="Group_13114" data-name="Group 13114" transform="translate(-1259 -5915)">
    <g id="Ellipse_7" data-name="Ellipse 7" transform="translate(1259 5915)" fill="#fff" stroke="#bcbcbc" stroke-width="0.5">
      <circle cx="19" cy="19" r="19" stroke="none"/>
      <circle cx="19" cy="19" r="18.75" fill="none"/>
    </g>
    <g id="Group_9" data-name="Group 9" transform="translate(1270.69 5925.253)">
      <path id="Path_6" data-name="Path 6" d="M1497.666,87.079c-1.237-.1-1.757-.709-2.727-1.3-.533,2.8-1.185,5.479-3.115,6.88-.6-4.228.875-7.4,1.557-10.774-1.165-1.96.14-5.905,2.6-4.933,3.022,1.2-2.617,7.288,1.168,8.049,3.953.794,5.566-6.858,3.115-9.347-3.541-3.594-10.308-.082-9.476,5.062.2,1.258,1.5,1.639.519,3.375-2.266-.5-2.943-2.29-2.855-4.673.14-3.9,3.505-6.632,6.88-7.011,4.268-.478,8.274,1.568,8.827,5.582.622,4.532-1.927,9.439-6.491,9.087Zm0,0" transform="translate(-1488.442 -72.341)" fill="#3462ab"/>
    </g>
  </g>
</svg>
